<?xml version="1.0" encoding="utf-8"?>
<!-- Generator: Adobe Illustrator 24.2.1, SVG Export Plug-In . SVG Version: 6.00 Build 0)  -->
<svg version="1.1" id="Layer_1" xmlns="http://www.w3.org/2000/svg" xmlns:xlink="http://www.w3.org/1999/xlink" x="0px" y="0px"
	 viewBox="0 0 16 16" style="enable-background:new 0 0 16 16;" xml:space="preserve">
<style type="text/css">
	.st0{fill:#8B4E9F;}
	.st1{fill:#6CAEE0;}
	.st2{fill:#363A96;}
	.st3{fill:#394FA2;}
	.st4{fill:#445CAA;}
	.st5{fill:#2D3593;}
</style>
<g>
	<path class="st0" d="M15.1,13.1c-1.3,1.2-4,2-7.1,2c-4.4,0-8-1.7-8-3.8c0-1,0.7-1.8,2-2.5c1,1.3,2.8,2.7,4.9,3.7
		C10.2,14,13.5,14.2,15.1,13.1z"/>
	<path class="st0" d="M16,11.3c0,0.2,0,0.4-0.1,0.7c0,0,0,0,0,0c0,0,0,0,0,0c0,0,0-0.1,0-0.1c0.1-0.6,0-1.2-0.3-1.8
		c0.3,0.4,0.4,0.7,0.4,1.1C16,11.2,16,11.3,16,11.3z"/>
	<path class="st1" d="M15.2,13c0.3-0.3,0.5-0.6,0.6-1c-0.1,0.3-0.3,0.6-0.5,0.8C15.3,12.9,15.3,12.9,15.2,13z"/>
	<path class="st1" d="M15.9,11.9c0.1-0.6,0-1.2-0.3-1.8c-0.8-1.6-2.8-3.4-5.5-4.6C7.7,4.4,5.3,4,3.6,4.2C3.3,3.1,3.5,2.1,4.1,1.5
		C5.6,0,9.3,1.3,12.4,4.4c2.3,2.3,3.6,4.9,3.6,6.8C16,11.4,16,11.7,15.9,11.9z"/>
	<path class="st2" d="M15.2,13c0,0-0.1,0.1-0.1,0.1c-1.5,1.1-4.8,0.9-8.2-0.6C4.7,11.5,3,10.1,2,8.8c0.9-0.5,2-0.9,3.3-1.1
		C5.7,8.4,6.3,9.2,7,9.9C10,12.9,13.6,14.2,15.2,13z"/>
	<path class="st3" d="M15.6,10.1C14.5,8.6,11.5,7.5,8,7.5c-1,0-1.9,0.1-2.8,0.2C4.4,6.5,3.8,5.3,3.6,4.2C5.3,4,7.7,4.4,10.1,5.5
		C12.7,6.7,14.8,8.5,15.6,10.1z"/>
	<path class="st4" d="M5.2,7.7C3.9,7.9,2.8,8.3,2,8.8C1.1,7.7,0.8,6.6,1.2,5.7c0.4-0.8,1.2-1.3,2.4-1.4C3.8,5.3,4.4,6.5,5.2,7.7z"/>
	<path class="st5" d="M15.9,11.9C15.9,11.9,15.9,12,15.9,11.9c-0.1,0.4-0.4,0.7-0.7,1C13.6,14.2,10,12.9,7,9.9
		C6.3,9.2,5.7,8.4,5.2,7.7C6.1,7.6,7,7.5,8,7.5c3.5,0,6.5,1.1,7.6,2.6C15.9,10.7,16,11.4,15.9,11.9z"/>
	<path class="st4" d="M15.9,11.9C15.9,11.9,15.9,11.9,15.9,11.9C15.9,12,15.9,12,15.9,11.9c0,0.2-0.1,0.3-0.1,0.4
		c-0.1,0.3-0.4,0.6-0.7,0.8c0.1,0,0.1-0.1,0.1-0.1C15.5,12.7,15.7,12.3,15.9,11.9C15.9,12,15.9,11.9,15.9,11.9z"/>
</g>
</svg>
