<?xml version="1.0" encoding="utf-8"?>
<!-- Generator: Adobe Illustrator 24.2.1, SVG Export Plug-In . SVG Version: 6.00 Build 0)  -->
<svg version="1.1" id="Layer_1" xmlns="http://www.w3.org/2000/svg" xmlns:xlink="http://www.w3.org/1999/xlink" x="0px" y="0px"
	 viewBox="0 0 289.7 58.2" style="enable-background:new 0 0 289.7 58.2;" xml:space="preserve">
<style type="text/css">
	.st0{opacity:0.2;}
	.st1{fill:#FFFFFF;}
	.st2{fill:#8B4E9F;}
	.st3{fill:#6CAEE0;}
	.st4{fill:#363A96;}
	.st5{fill:#394FA2;}
	.st6{fill:#445CAA;}
	.st7{fill:#2D3593;}
</style>
<g class="st0">
	<polygon class="st1" points="108.5,43.6 98.3,43.6 108,51.5 116.3,51.5 118.1,51.5 	"/>
	<g>
		<polygon class="st1" points="118.1,18.1 118.1,40.5 110.6,33.9 110.6,18.1 		"/>
		<g>
			<g>
				<g>
					<path class="st1" d="M76.4,14.4v29.2h-8V14.4H76.4z"/>
					<path class="st1" d="M108.4,35.1l-20.9-17h-7.3v25.5h7.5v-17l20.9,17h7.3h2.4L108.4,35.1z"/>
					<path class="st1" d="M130.1,18.1L130.1,18.1h15.8c2.4,0,4.4,0.8,6.1,2.3c1.7,1.5,2.5,3.3,2.5,5.5V26h-7.3c0-0.1,0-0.1,0-0.1
						c0-0.5-0.1-0.8-0.5-1.1c-0.3-0.3-0.8-0.5-1.2-0.5h-14.1c-0.5,0-0.9,0.2-1.2,0.5s-0.5,0.6-0.5,1.1c0,0.4,0.2,0.8,0.5,1.1
						c0.3,0.3,0.7,0.5,1.2,0.5c1.7,0,4.2,0,7.7,0s6,0,7.7,0c2.4,0,4.5,0.8,6.2,2.4c1.8,1.6,2.6,3.5,2.6,5.7c0,2.2-0.8,4.1-2.6,5.7
						c-1.7,1.6-3.8,2.3-6.2,2.3h-16.4c-2.4,0-4.5-0.8-6.2-2.3c-1.7-1.6-2.6-3.5-2.6-5.7v-0.1h7.1v0.2c0,0.5,0.2,0.9,0.6,1.3
						c0.4,0.3,0.9,0.5,1.4,0.5h15.5c0.6,0,1.1-0.2,1.4-0.5s0.6-0.8,0.6-1.3s-0.2-1-0.6-1.3c-0.4-0.4-0.9-0.6-1.4-0.5h-16
						c-2.3,0-4.4-0.8-6.1-2.3s-2.5-3.4-2.5-5.5s0.8-3.9,2.5-5.4s3.7-2.3,6-2.4V18.1C130,18.1,130.1,18.1,130.1,18.1z"/>
					<path class="st1" d="M184.2,18.1c2.7,0,5,0.9,6.9,2.6s2.9,3.8,2.9,6.3c0,2.4-0.9,4.5-2.9,6.3c-1.9,1.7-4.2,2.6-6.9,2.6h-17.3
						v7.8h-7.5V18.1H184.2z M166.9,29.7h16.7c0.9,0,1.6-0.3,2.1-0.7c0.6-0.5,0.8-1.2,0.8-1.9c0-0.8-0.3-1.5-0.8-1.9
						c-0.6-0.5-1.3-0.8-2.1-0.7h-16.7V29.7z"/>
					<path class="st1" d="M205.3,18.1v25.5h-7.5V18.1H205.3z"/>
					<path class="st1" d="M233.9,18.1c2.5,0,4.7,0.8,6.4,2.4c1.8,1.6,2.7,3.5,2.7,5.8c0,2-0.7,3.7-2.1,5.3c-1.4,1.5-3.2,2.4-5.3,2.8
						l8.1,9.2h-8.8l-7.5-9h-10.8v9h-7.5V18.1H233.9z M216.6,28.5c9.4,0,14.9,0,16.6,0c0.7,0,1.3-0.2,1.7-0.6s0.6-0.9,0.6-1.5
						s-0.2-1.1-0.6-1.5c-0.4-0.4-0.9-0.6-1.7-0.5h-16.6V28.5z"/>
					<path class="st1" d="M278.9,18.1v6.2h-23.8v3.4h20.7v6.1h-20.7v3.6h23.8v6.2h-31.4V18.1H278.9z"/>
				</g>
				<g>
					<path class="st1" d="M190.9,46.3v0.8h-1.6v5.2h-1v-5.2h-1.6v-0.8H190.9z"/>
					<path class="st1" d="M196.2,50.3h-3.6c0,0.4,0.2,0.7,0.4,0.9c0.3,0.2,0.6,0.3,0.9,0.3c0.5,0,0.9-0.2,1.1-0.7h1.1
						c-0.1,0.4-0.4,0.8-0.8,1.1c-0.4,0.3-0.9,0.4-1.4,0.4s-0.9-0.1-1.2-0.3c-0.4-0.2-0.6-0.5-0.9-0.9c-0.2-0.4-0.3-0.8-0.3-1.3
						s0.1-0.9,0.3-1.3c0.2-0.4,0.5-0.7,0.8-0.9s0.8-0.3,1.2-0.3s0.9,0.1,1.2,0.3c0.4,0.2,0.6,0.5,0.8,0.8c0.2,0.4,0.3,0.8,0.3,1.2
						C196.2,50,196.2,50.2,196.2,50.3z M195.2,49.5c0-0.4-0.1-0.7-0.4-0.9s-0.6-0.3-0.9-0.3c-0.3,0-0.6,0.1-0.9,0.3
						c-0.2,0.2-0.4,0.5-0.4,0.9H195.2z"/>
					<path class="st1" d="M197.2,48.7c0.2-0.4,0.5-0.7,0.8-0.9s0.8-0.3,1.2-0.3c0.6,0,1.1,0.1,1.4,0.4s0.6,0.7,0.8,1.2h-1.1
						c-0.1-0.2-0.2-0.4-0.4-0.5s-0.4-0.2-0.7-0.2c-0.4,0-0.7,0.1-1,0.4s-0.4,0.7-0.4,1.2s0.1,0.9,0.4,1.2c0.2,0.3,0.6,0.4,1,0.4
						c0.6,0,0.9-0.3,1.1-0.8h1.1c-0.1,0.5-0.4,0.9-0.8,1.2s-0.9,0.4-1.4,0.4s-0.9-0.1-1.2-0.3c-0.4-0.2-0.6-0.5-0.8-0.9
						s-0.3-0.8-0.3-1.3C196.9,49.5,197,49,197.2,48.7z"/>
					<path class="st1" d="M205.9,47.7c0.3,0.2,0.5,0.4,0.7,0.7s0.3,0.7,0.3,1.1v2.8h-1v-2.7c0-0.4-0.1-0.8-0.3-1s-0.5-0.3-0.9-0.3
						s-0.7,0.1-0.9,0.3s-0.3,0.6-0.3,1v2.7h-1v-6.4h1v2.2c0.2-0.2,0.4-0.4,0.6-0.5s0.5-0.2,0.9-0.2
						C205.2,47.5,205.6,47.6,205.9,47.7z"/>
					<path class="st1" d="M211.4,47.7c0.3,0.2,0.5,0.4,0.7,0.7s0.3,0.7,0.3,1.1v2.8h-1v-2.7c0-0.4-0.1-0.8-0.3-1s-0.5-0.3-0.9-0.3
						s-0.7,0.1-0.9,0.3s-0.3,0.6-0.3,1v2.7h-1v-4.8h1V48c0.2-0.2,0.4-0.3,0.6-0.5s0.5-0.2,0.8-0.2C210.8,47.5,211.1,47.6,211.4,47.7
						z"/>
					<path class="st1" d="M214.5,52.1c-0.4-0.2-0.6-0.5-0.9-0.9c-0.2-0.4-0.3-0.8-0.3-1.3s0.1-0.9,0.3-1.3c0.2-0.4,0.5-0.7,0.9-0.9
						s0.8-0.3,1.2-0.3s0.9,0.1,1.2,0.3c0.4,0.2,0.7,0.5,0.9,0.9s0.3,0.8,0.3,1.3s-0.1,0.9-0.3,1.3c-0.2,0.4-0.5,0.7-0.9,0.9
						s-0.8,0.3-1.3,0.3C215.3,52.4,214.9,52.3,214.5,52.1z M216.4,51.4c0.2-0.1,0.4-0.3,0.5-0.5s0.2-0.5,0.2-0.9s-0.1-0.6-0.2-0.9
						c-0.1-0.2-0.3-0.4-0.5-0.5s-0.5-0.2-0.7-0.2s-0.5,0.1-0.7,0.2s-0.4,0.3-0.5,0.5s-0.2,0.5-0.2,0.9c0,0.5,0.1,0.9,0.4,1.2
						c0.3,0.3,0.6,0.4,1,0.4C216,51.6,216.2,51.5,216.4,51.4z"/>
					<path class="st1" d="M220.2,45.9v6.4h-1v-6.4H220.2z"/>
					<path class="st1" d="M222.3,52.1c-0.4-0.2-0.6-0.5-0.9-0.9c-0.2-0.4-0.3-0.8-0.3-1.3s0.1-0.9,0.3-1.3c0.2-0.4,0.5-0.7,0.9-0.9
						s0.8-0.3,1.2-0.3s0.9,0.1,1.2,0.3c0.4,0.2,0.7,0.5,0.9,0.9s0.3,0.8,0.3,1.3s-0.1,0.9-0.3,1.3c-0.2,0.4-0.5,0.7-0.9,0.9
						s-0.8,0.3-1.3,0.3C223.1,52.4,222.7,52.3,222.3,52.1z M224.3,51.4c0.2-0.1,0.4-0.3,0.5-0.5s0.2-0.5,0.2-0.9s-0.1-0.6-0.2-0.9
						c-0.1-0.2-0.3-0.4-0.5-0.5s-0.5-0.2-0.7-0.2s-0.5,0.1-0.7,0.2s-0.4,0.3-0.5,0.5s-0.2,0.5-0.2,0.9c0,0.5,0.1,0.9,0.4,1.2
						c0.3,0.3,0.6,0.4,1,0.4C223.8,51.6,224,51.5,224.3,51.4z"/>
					<path class="st1" d="M229.9,47.7c0.3,0.2,0.5,0.3,0.7,0.5v-0.7h1v4.8c0,0.4-0.1,0.8-0.3,1.2c-0.2,0.3-0.4,0.6-0.8,0.8
						s-0.8,0.3-1.3,0.3c-0.6,0-1.2-0.2-1.6-0.5c-0.4-0.3-0.7-0.7-0.7-1.2h1c0.1,0.3,0.2,0.5,0.5,0.6c0.3,0.2,0.5,0.2,0.9,0.2
						s0.7-0.1,1-0.4s0.4-0.6,0.4-1.1v-0.8c-0.2,0.2-0.4,0.4-0.7,0.6c-0.3,0.2-0.6,0.2-1,0.2s-0.8-0.1-1.1-0.3s-0.6-0.5-0.8-0.9
						s-0.3-0.8-0.3-1.3s0.1-0.9,0.3-1.3s0.5-0.7,0.8-0.9s0.7-0.3,1.1-0.3C229.3,47.5,229.6,47.6,229.9,47.7z M230.4,49.1
						c-0.1-0.2-0.3-0.4-0.5-0.5s-0.5-0.2-0.7-0.2s-0.5,0.1-0.7,0.2c-0.2,0.1-0.4,0.3-0.5,0.5s-0.2,0.5-0.2,0.8s0.1,0.6,0.2,0.9
						c0.1,0.3,0.3,0.4,0.5,0.6c0.2,0.1,0.5,0.2,0.7,0.2s0.5-0.1,0.7-0.2c0.2-0.1,0.4-0.3,0.5-0.6s0.2-0.5,0.2-0.9
						S230.5,49.3,230.4,49.1z"/>
					<path class="st1" d="M237.2,47.6l-2.9,7h-1l1-2.3l-1.9-4.7h1.1l1.3,3.6l1.4-3.6H237.2z"/>
					<path class="st1" d="M241.1,52.2c-0.3-0.1-0.6-0.3-0.8-0.6S240,51,240,50.7h1.1c0,0.3,0.1,0.5,0.3,0.6s0.4,0.3,0.8,0.3
						c0.3,0,0.6-0.1,0.8-0.3s0.3-0.4,0.3-0.6c0-0.2-0.1-0.4-0.2-0.5c-0.1-0.1-0.3-0.2-0.4-0.3c-0.2-0.1-0.4-0.1-0.7-0.2
						c-0.4-0.1-0.7-0.2-1-0.3s-0.5-0.3-0.6-0.5s-0.3-0.5-0.3-0.9c0-0.3,0.1-0.7,0.3-0.9s0.4-0.5,0.7-0.6s0.7-0.2,1.1-0.2
						c0.6,0,1.1,0.2,1.4,0.4c0.4,0.3,0.6,0.7,0.6,1.2h-1.1c0-0.2-0.1-0.4-0.3-0.6c-0.2-0.2-0.4-0.2-0.8-0.2c-0.3,0-0.5,0.1-0.7,0.2
						c-0.2,0.1-0.3,0.3-0.3,0.6c0,0.2,0.1,0.3,0.2,0.5s0.3,0.2,0.4,0.3s0.4,0.1,0.7,0.2c0.4,0.1,0.7,0.2,1,0.3s0.5,0.3,0.6,0.5
						s0.3,0.5,0.3,0.9c0,0.3-0.1,0.6-0.3,0.9c-0.2,0.3-0.4,0.5-0.7,0.7s-0.7,0.3-1.1,0.3C241.8,52.4,241.4,52.3,241.1,52.2z"/>
					<path class="st1" d="M246.3,52.1c-0.4-0.2-0.6-0.5-0.9-0.9c-0.2-0.4-0.3-0.8-0.3-1.3s0.1-0.9,0.3-1.3c0.2-0.4,0.5-0.7,0.9-0.9
						s0.8-0.3,1.2-0.3s0.9,0.1,1.2,0.3c0.4,0.2,0.7,0.5,0.9,0.9s0.3,0.8,0.3,1.3s-0.1,0.9-0.3,1.3c-0.2,0.4-0.5,0.7-0.9,0.9
						s-0.8,0.3-1.3,0.3C247,52.4,246.6,52.3,246.3,52.1z M248.2,51.4c0.2-0.1,0.4-0.3,0.5-0.5s0.2-0.5,0.2-0.9s-0.1-0.6-0.2-0.9
						c-0.1-0.2-0.3-0.4-0.5-0.5s-0.5-0.2-0.7-0.2s-0.5,0.1-0.7,0.2s-0.4,0.3-0.5,0.5s-0.2,0.5-0.2,0.9c0,0.5,0.1,0.9,0.4,1.2
						c0.3,0.3,0.6,0.4,1,0.4C247.7,51.6,248,51.5,248.2,51.4z"/>
					<path class="st1" d="M251.9,45.9v6.4h-1v-6.4H251.9z"/>
					<path class="st1" d="M257.6,47.6v4.8h-1v-0.6c-0.2,0.2-0.4,0.3-0.6,0.5c-0.3,0.1-0.5,0.2-0.8,0.2c-0.4,0-0.7-0.1-1-0.2
						c-0.3-0.2-0.5-0.4-0.7-0.7s-0.3-0.7-0.3-1.1v-2.8h1v2.7c0,0.4,0.1,0.8,0.3,1s0.5,0.3,0.9,0.3s0.7-0.1,0.9-0.3s0.3-0.6,0.3-1
						v-2.7L257.6,47.6L257.6,47.6z"/>
					<path class="st1" d="M260,48.4V51c0,0.2,0,0.3,0.1,0.4c0.1,0.1,0.2,0.1,0.4,0.1h0.6v0.8h-0.8c-0.5,0-0.8-0.1-1-0.3
						s-0.4-0.5-0.4-1v-2.6h-0.6v-0.8h0.6v-1.2h1v1.2h1.2v0.8H260L260,48.4z"/>
					<path class="st1" d="M262.1,46.8c-0.1-0.1-0.2-0.3-0.2-0.5s0.1-0.3,0.2-0.5s0.3-0.2,0.5-0.2s0.3,0.1,0.4,0.2s0.2,0.3,0.2,0.5
						s-0.1,0.3-0.2,0.5s-0.3,0.2-0.4,0.2C262.4,46.9,262.3,46.9,262.1,46.8z M263.1,47.6v4.8h-1v-4.8H263.1z"/>
					<path class="st1" d="M265.2,52.1c-0.4-0.2-0.6-0.5-0.9-0.9c-0.2-0.4-0.3-0.8-0.3-1.3s0.1-0.9,0.3-1.3c0.2-0.4,0.5-0.7,0.9-0.9
						s0.8-0.3,1.2-0.3s0.9,0.1,1.2,0.3s0.7,0.5,0.9,0.9c0.2,0.4,0.3,0.8,0.3,1.3s-0.1,0.9-0.3,1.3c-0.2,0.4-0.5,0.7-0.9,0.9
						s-0.8,0.3-1.3,0.3C266,52.4,265.6,52.3,265.2,52.1z M267.2,51.4c0.2-0.1,0.4-0.3,0.5-0.5s0.2-0.5,0.2-0.9s-0.1-0.6-0.2-0.9
						s-0.3-0.4-0.5-0.5s-0.5-0.2-0.7-0.2s-0.5,0.1-0.7,0.2s-0.4,0.3-0.5,0.5s-0.2,0.5-0.2,0.9c0,0.5,0.1,0.9,0.4,1.2s0.6,0.4,1,0.4
						C266.7,51.6,266.9,51.5,267.2,51.4z"/>
					<path class="st1" d="M273.3,47.7c0.3,0.2,0.5,0.4,0.7,0.7s0.3,0.7,0.3,1.1v2.8h-1v-2.7c0-0.4-0.1-0.8-0.3-1
						c-0.2-0.2-0.5-0.3-0.9-0.3s-0.7,0.1-0.9,0.3s-0.3,0.6-0.3,1v2.7h-1v-4.8h1V48c0.2-0.2,0.4-0.3,0.6-0.5s0.5-0.2,0.8-0.2
						C272.7,47.5,273,47.6,273.3,47.7z"/>
					<path class="st1" d="M276.3,52.2c-0.3-0.1-0.5-0.3-0.7-0.5s-0.3-0.5-0.3-0.8h1c0,0.2,0.1,0.4,0.3,0.5c0.2,0.1,0.4,0.2,0.7,0.2
						c0.3,0,0.5,0,0.6-0.2c0.1-0.1,0.2-0.2,0.2-0.4s-0.1-0.3-0.3-0.4c-0.2-0.1-0.4-0.2-0.8-0.3s-0.6-0.2-0.9-0.3
						c-0.2-0.1-0.4-0.2-0.6-0.4s-0.3-0.4-0.3-0.8c0-0.3,0.1-0.5,0.2-0.7s0.4-0.4,0.6-0.5s0.6-0.2,1-0.2c0.5,0,1,0.1,1.3,0.4
						s0.5,0.7,0.5,1.1h-1c0-0.2-0.1-0.4-0.3-0.5c-0.2-0.1-0.4-0.2-0.6-0.2s-0.5,0-0.6,0.2c-0.1,0.1-0.2,0.2-0.2,0.4
						c0,0.1,0,0.2,0.1,0.3s0.2,0.2,0.3,0.2s0.3,0.1,0.6,0.2c0.4,0.1,0.6,0.2,0.9,0.3c0.2,0.1,0.4,0.2,0.6,0.4s0.3,0.4,0.3,0.7
						s-0.1,0.5-0.2,0.7s-0.4,0.4-0.6,0.5c-0.3,0.1-0.6,0.2-1,0.2C276.9,52.4,276.5,52.4,276.3,52.2z"/>
				</g>
			</g>
			<g>
				<path class="st2" d="M56.2,47.9c-4.5,4.1-13.4,6.8-23.7,6.8C17.8,54.7,5.8,49,5.8,41.9c0-3.2,2.5-6.2,6.6-8.4
					c3.4,4.5,9.2,9,16.5,12.3C40.1,50.8,51.1,51.5,56.2,47.9z"/>
				<path class="st2" d="M59.3,41.9c0,0.8-0.1,1.5-0.4,2.2v0.1l0,0c0-0.1,0.1-0.2,0.1-0.3c0.4-1.9,0-4-1.1-6.2
					c0.8,1.2,1.3,2.4,1.4,3.8C59.3,41.7,59.3,41.8,59.3,41.9z"/>
				<path class="st3" d="M56.7,47.4c1-1,1.7-2.1,2.2-3.2c-0.3,1-0.9,2-1.6,2.7C57.1,47.1,56.9,47.3,56.7,47.4z"/>
				<path class="st3" d="M59,43.9c0.4-1.9,0-4-1.1-6.2c-2.6-5.4-9.5-11.3-18.5-15.4c-8-3.6-16-5-21.7-4.1c-0.9-3.9-0.4-7.2,1.6-9.2
					c5-5,17.5-0.6,28,9.9c7.7,7.7,12.1,16.5,11.9,22.6C59.3,42.4,59.2,43.2,59,43.9z"/>
				<path class="st4" d="M56.7,47.4c-0.2,0.2-0.3,0.3-0.5,0.5c-5.1,3.6-16.2,3-27.3-2.1c-7.3-3.3-13.2-7.8-16.5-12.3
					c2.9-1.6,6.6-2.9,10.9-3.6c1.7,2.4,3.7,4.8,6,7.2C39.4,47.2,51.4,51.6,56.7,47.4z"/>
				<path class="st5" d="M57.9,37.8c-3.6-5.1-13.6-8.7-25.4-8.7c-3.3,0-6.4,0.3-9.3,0.8c-2.8-4-4.7-8.1-5.5-11.6
					c5.7-0.8,13.7,0.5,21.7,4.1C48.5,26.5,55.3,32.4,57.9,37.8z"/>
				<path class="st6" d="M23.2,29.9c-4.3,0.8-8,2-10.9,3.6C9.5,29.7,8.4,26,9.8,23.1c1.2-2.6,4.1-4.2,8-4.8
					C18.5,21.8,20.4,25.9,23.2,29.9z"/>
				<path class="st7" d="M59,43.9c0,0.1,0,0.2-0.1,0.3c-0.4,1.1-1.2,2.2-2.2,3.2c-5.3,4.2-17.4-0.3-27.5-10.4
					c-2.3-2.3-4.4-4.8-6-7.2c2.9-0.5,6-0.8,9.3-0.8c11.8,0,21.8,3.6,25.4,8.7C59,40,59.4,42.1,59,43.9z"/>
				<path class="st6" d="M59,43.9c0,0.1,0,0.1,0,0.2v0.1c-0.1,0.3-0.2,0.6-0.3,0.9c-0.5,1.1-1.3,2-2.3,2.8c0.2-0.1,0.3-0.3,0.5-0.5
					c1-1,1.7-2.1,2.2-3.2C58.9,44.1,59,44,59,43.9z"/>
			</g>
		</g>
		<path class="st1" d="M283.2,6.4c-2.2,0-4,1.8-4,4s1.8,4,4,4s4-1.8,4-4S285.4,6.4,283.2,6.4z M283.2,13.3c-1.6,0-2.9-1.3-2.9-2.9
			s1.3-2.9,2.9-2.9s2.9,1.3,2.9,2.9S284.8,13.3,283.2,13.3z M284.6,9.9c0-0.8-0.6-1.3-1.5-1.3h-1.4v3.6h0.8v-1h0.6h0.1l0.7,1h1
			L284,11C284.4,10.8,284.6,10.4,284.6,9.9z M283.1,10.5h-0.6V9.4h0.6c0.7,0,0.7,0.4,0.7,0.5C283.9,10.1,283.9,10.5,283.1,10.5z"/>
	</g>
</g>
<rect x="-204" y="-229" class="st1" width="57" height="57"/>
</svg>
