<?xml version="1.0" encoding="utf-8"?>
<!-- Generator: Adobe Illustrator 24.2.1, SVG Export Plug-In . SVG Version: 6.00 Build 0)  -->
<svg version="1.1" id="Layer_1" xmlns="http://www.w3.org/2000/svg" xmlns:xlink="http://www.w3.org/1999/xlink" x="0px" y="0px"
	 viewBox="0 0 24 24" style="enable-background:new 0 0 24 24;" xml:space="preserve">
<style type="text/css">
	.st0{fill:#56ACE0;}
	.st1{fill:#FFFFFF;}
</style>
<path class="st0" d="M2.3,11.6l4.5,2l10.9-7.7C18,5.7,18.3,5.8,18.6,6s0.2,0.6,0,0.9l-8.2,10.1l-0.2,3.5l2.3-2.9
	c0.2-0.2,0.5-0.3,0.8-0.2l3.9,2l5.1-16.8L2.3,11.6z"/>
<path class="st1" d="M23.8,0.9c-0.2-0.2-0.5-0.2-0.7-0.1L0.4,11C0.1,11.1,0,11.4,0,11.6c0,0.3,0.2,0.5,0.4,0.6L6.6,15
	c0.2,0.1,0.5,0.1,0.7-0.1l7.1-5.1l-5.2,6.4C9.1,16.4,9,16.5,9,16.6l-0.4,5.9c0,0.3,0.2,0.6,0.4,0.7c0.3,0.1,0.6,0,0.8-0.2l3.3-4.1
	l4.1,2.1c0.2,0.1,0.4,0.1,0.6,0c0.2-0.1,0.3-0.2,0.4-0.4l5.8-19C24,1.4,24,1.1,23.8,0.9z M17.1,19.4l-3.9-2
	c-0.3-0.1-0.6-0.1-0.8,0.2l-2.3,2.9l0.2-3.5l8.2-10c0.2-0.3,0.2-0.6,0-0.9c-0.2-0.2-0.6-0.3-0.9-0.1L6.8,13.7l-4.5-2l20-9L17.1,19.4
	z"/>
</svg>
